<svg xmlns="http://www.w3.org/2000/svg" width="512" height="512" viewBox="0 0 464 464"><path xmlns="http://www.w3.org/2000/svg" d="M16 48h432v96H16zm0 0" fill="#7fcac9" data-original="#7fcac9"/><path xmlns="http://www.w3.org/2000/svg" d="M160 0h144v144H160zm0 0" fill="#f4f4e6" data-original="#f4f4e6"/><path xmlns="http://www.w3.org/2000/svg" d="M16 176h432v288H16zm0 0" fill="#7fcac9" data-original="#7fcac9"/><path xmlns="http://www.w3.org/2000/svg" d="M272 56h-24V32h-32v24h-24v32h24v24h32V88h24zm0 0" fill="#dd3e46" data-original="#dd3e46"/><path xmlns="http://www.w3.org/2000/svg" d="M0 144h464v32H0zm0 0" fill="#195c85" data-original="#195c85"/><path xmlns="http://www.w3.org/2000/svg" d="M272 232h120v232H272zm0 0" fill="#f4f4e6" data-original="#f4f4e6"/><path xmlns="http://www.w3.org/2000/svg" d="M72 352h144v40H72zm0 0" fill="#195c85" data-original="#195c85"/><path xmlns="http://www.w3.org/2000/svg" d="M88 232h112v120H88zm0 0M272 288h120v96H272zm0 0" fill="#cfdfe8" data-original="#cfdfe8"/><path xmlns="http://www.w3.org/2000/svg" d="M360 344a8 8 0 01-8-8v-8a8 8 0 0116 0v8a8 8 0 01-8 8zm0 0" fill="#195c85" data-original="#195c85"/><g xmlns="http://www.w3.org/2000/svg" fill="#fff"><path d="M120 296c-3.234 0-6.152-1.95-7.39-4.938s-.551-6.43 1.734-8.718l24-24a8 8 0 0111.312 11.312l-24 24A8.001 8.001 0 01120 296zm0 0M128 328c-3.234 0-6.152-1.95-7.39-4.938s-.551-6.43 1.734-8.718l40-40a8 8 0 0111.312 11.312l-40 40A8.001 8.001 0 01128 328zm0 0" data-original="#ffffff"/></g></svg>